# xmcd CD database file
#
# Track frame offsets:
#	150
#	18862
#	39696
#	51213
#	64964
#	72976
#	87347
#	93037
#	105926
#	113942
#	122248
#	131647
#	143467
#	158821
#	176836
#	185863
#	195909
#	203464
#
# Disc length: 2809 seconds
#
# Revision: 0
# Processed by: cddbd v1.5PL3 Copyright (c) Steve Scherf et al.
# Submitted via: CDex 1.50beta9
#
DISCID=f50af712
DTITLE=45 Grave - Starwood Ballroom 1981-03-26
DYEAR=1981
DGENRE=Deathrock
TTITLE0=Wax
TTITLE1=What is
TTITLE2=Bad Love
TTITLE3=Violent World
TTITLE4=Anti Anti Anti
TTITLE5=Unknown -- Anti-Em
TTITLE6=Unknown
TTITLE7=Partytime
TTITLE8=Surf Bat
TTITLE9=Dream Hits
TTITLE10=Consumers
TTITLE11=Choices
TTITLE12=Dream Hits
TTITLE13=Paint it Black
TTITLE14=Anti-Em
TTITLE15=Surf Bat
TTITLE16=Consumers
TTITLE17=Eye (instrumental)
EXTD=YEAR: 1981
EXTT0=
EXTT1=
EXTT2=
EXTT3=
EXTT4=
EXTT5=
EXTT6=
EXTT7=
EXTT8=
EXTT9=
EXTT10=
EXTT11=
EXTT12=
EXTT13=
EXTT14=
EXTT15=
EXTT16=
EXTT17=
PLAYORDER=
